<?xml version="1.0" encoding="iso-8859-1"?>
<!-- Generator: Adobe Illustrator 19.0.0, SVG Export Plug-In . SVG Version: 6.00 Build 0)  -->
<svg version="1.1" id="Capa_1" xmlns="http://www.w3.org/2000/svg" xmlns:xlink="http://www.w3.org/1999/xlink" x="0px" y="0px"
	 viewBox="0 0 512 512" style="enable-background:new 0 0 512 512;" xml:space="preserve">
<path style="fill:#E6AF78;" d="M425.468,331.131l-73.842-20.512c-13.878-3.855-23.483-16.491-23.483-30.895v-63.805H183.857v63.806
	c0,14.403-9.604,27.039-23.482,30.894L86.533,331.13c-27.756,7.71-46.966,32.982-46.966,61.79V504.5h432.867V392.921
	C472.433,364.113,453.224,338.841,425.468,331.131z"/>
<path style="fill:#D29B6E;" d="M183.857,263.856c20.111,15.132,45.036,24.209,72.141,24.209c27.107,0,52.034-9.078,72.145-24.212
	V215.92H183.857L183.857,263.856L183.857,263.856z"/>
<path style="fill:#C9C6CA;" d="M425.468,331.131l-72.83-20.231c-15.415,38.285-52.839,65.341-96.641,65.341
	c-43.801,0-81.225-27.056-96.64-65.34L86.532,331.13c-27.756,7.71-46.966,32.982-46.966,61.79V504.5l432.867-0.001V392.921
	C472.433,364.113,453.224,338.841,425.468,331.131z"/>
<path style="fill:#FFDC64;" d="M400.288,504.5H111.707v-64.129c0-8.854,7.178-16.032,16.032-16.032h256.516
	c8.854,0,16.032,7.178,16.032,16.032L400.288,504.5L400.288,504.5z"/>
<path style="fill:#F0C087;" d="M360.212,127.742c-0.001,0-0.003,0-0.004,0V95.677h-208.42v32.065
	c-8.852,0.002-16.028,7.179-16.028,16.032v8.016c0,8.854,7.178,16.032,16.032,16.032c2.935,0,5.65-0.846,8.016-2.224v2.224
	c0,53.126,43.067,96.194,96.194,96.194s96.194-43.068,96.194-96.194v-2.224c2.366,1.377,5.081,2.224,8.016,2.224
	c8.854,0,16.032-7.178,16.032-16.032v-8.016C376.244,134.919,369.066,127.742,360.212,127.742z"/>
<path style="fill:#E6AF78;" d="M151.788,95.677v32.065c-8.852,0.002-16.028,7.179-16.028,16.032v6.881
	c0,7.823,5.095,15.181,12.746,16.816c4.2,0.897,8.076,0.006,11.303-1.872v1.4c0,35.358,18.971,68.451,50.196,85.041
	c25.762,13.688,50.183,14.386,71.803,8.371c-42.563-11.565-73.906-42.356-73.906-88.581l0,0c0-8.317,5.922-15.397,14.09-16.962
	c10.335-1.981,22.007-3.078,34.007-3.078c22.393,0,43.82,3.749,57.316,10.029c4.177,1.944,8.656,2.93,13.311,2.93
	c7.067,0,14.117-2.369,19.85-6.668l0,0c8.644-6.483,13.732-16.658,13.732-27.464v-34.94L151.788,95.677L151.788,95.677z"/>
<path style="fill:#FFDC64;" d="M256.002,7.5c-57.553,0-104.21,22.575-104.21,50.424v61.802h208.419V57.924
	C360.212,30.075,313.556,7.5,256.002,7.5z"/>
<g>
	<path style="fill:#FFC850;" d="M151.793,57.924v61.802h56.109V57.924c0-27.849,21.536-50.424,48.101-50.424
		C198.449,7.5,151.793,30.075,151.793,57.924z"/>
	<path style="fill:#FFC850;" d="M255.998,127.742c25.889,0,48.974,4.497,64.08,11.526c5.474,2.547,11.949,1.593,16.779-2.029
		l23.351-17.513c-20.292-14.335-59.335-24.048-104.205-24.048c-44.875,0-83.917,9.714-104.21,24.048l23.351,17.513
		c4.83,3.622,11.305,4.576,16.779,2.029C207.029,132.239,230.113,127.742,255.998,127.742z"/>
</g>
<path style="fill:#B7B2B8;" d="M136.134,317.353c18.33,48.435,65.009,82.937,119.864,82.937c54.856,0,101.536-34.503,119.864-82.939
	l-23.224-6.451c-15.415,38.285-52.84,65.341-96.641,65.341s-81.225-27.056-96.64-65.34L136.134,317.353z"/>
<g>
	<path style="fill:#FFDC64;" d="M368.228,392.274h16.032c4.427,0,8.016-3.589,8.016-8.016v-62.347l-32.065-8.907v71.254
		C360.212,388.685,363.801,392.274,368.228,392.274z"/>
	<path style="fill:#FFDC64;" d="M127.744,392.274h16.032c4.427,0,8.016-3.589,8.016-8.016v-71.255l-32.065,8.907v62.348
		C119.728,388.685,123.317,392.274,127.744,392.274z"/>
</g>
<path d="M256.002,223.419c17.364,0,32.578-7.91,38.759-20.152c1.867-3.697,0.383-8.208-3.314-10.075
	c-3.697-1.867-8.208-0.383-10.075,3.314c-3.542,7.014-13.974,11.913-25.37,11.913s-21.828-4.898-25.37-11.913
	c-1.866-3.698-6.377-5.181-10.075-3.314s-5.182,6.377-3.314,10.075C223.424,215.509,238.638,223.419,256.002,223.419z"/>
<path d="M427.475,323.905l-73.842-20.512c-10.592-2.942-17.99-12.675-17.99-23.668V234.15c13.51-16.194,22.188-36.551,23.785-58.841
	c0.261,0.009,0.522,0.014,0.784,0.014c12.976,0,23.532-10.557,23.532-23.532v-8.016c0-10.354-6.724-19.161-16.032-22.3V57.924
	c0-16.501-12.343-31.562-34.755-42.406C312.276,5.511,284.946,0,256.002,0s-56.274,5.511-76.954,15.518
	c-22.413,10.845-34.756,25.905-34.756,42.406v63.551c-9.308,3.139-16.032,11.946-16.032,22.3v8.016
	c0,12.976,10.557,23.532,23.532,23.532c0.261,0,0.522-0.004,0.784-0.014c1.597,22.287,10.274,42.642,23.781,58.835v45.581
	c0,10.993-7.397,20.726-17.99,23.668l-73.842,20.512c-30.887,8.58-52.458,36.96-52.458,69.016V504.5c0,4.142,3.358,7.5,7.5,7.5
	s7.5-3.358,7.5-7.5V392.921c0-25.343,17.054-47.78,41.473-54.563l23.688-6.58v52.481c0,8.556,6.96,15.516,15.516,15.516h0.516
	v17.064h-0.521c-12.976,0-23.532,10.557-23.532,23.532V504.5c0,4.142,3.358,7.5,7.5,7.5s7.5-3.358,7.5-7.5v-64.129
	c0-4.705,3.828-8.532,8.532-8.532h16.035c4.142,0,7.5-3.358,7.5-7.5s-3.358-7.5-7.5-7.5h-0.515v-17.064h0.516
	c8.556,0,15.516-6.96,15.516-15.516v-56.287c19.795,34.271,56.402,55.77,96.71,55.77c40.323,0,76.917-21.496,96.709-55.769v56.286
	c0,8.556,6.96,15.516,15.516,15.516h0.516v17.064H175.836c-4.142,0-7.5,3.358-7.5,7.5s3.358,7.5,7.5,7.5h208.42
	c4.705,0,8.532,3.828,8.532,8.532V504.5c0,4.142,3.358,7.5,7.5,7.5s7.5-3.358,7.5-7.5v-64.129c0-12.976-10.557-23.532-23.532-23.532
	h-0.512v-17.064h0.516c8.556,0,15.516-6.96,15.516-15.516V331.78l23.684,6.579c24.418,6.783,41.473,29.22,41.473,54.563V504.5
	c0,4.142,3.358,7.5,7.5,7.5s7.5-3.358,7.5-7.5V392.921C479.933,360.865,458.361,332.484,427.475,323.905z M185.582,29.02
	C204.266,19.979,229.275,15,256.002,15c26.727,0,51.736,4.979,70.42,14.02c16.707,8.084,26.289,18.619,26.289,28.904v48.726
	c-4.267-2.109-8.944-4.077-14.012-5.885c-3.902-1.393-8.192,0.642-9.584,4.543c-1.392,3.901,0.642,8.192,4.543,9.584
	c4.814,1.717,9.192,3.571,13.104,5.545l-14.401,10.801c-2.735,2.051-6.312,2.534-9.115,1.229
	c-16.698-7.77-41.208-12.227-67.244-12.227c-26.037,0-50.546,4.457-67.245,12.227c-2.802,1.304-6.38,0.822-9.114-1.229
	l-14.417-10.813c21.211-10.772,54.674-17.249,90.776-17.249c16.307,0,32.057,1.295,46.813,3.848
	c4.078,0.703,7.963-2.029,8.669-6.111c0.707-4.082-2.03-7.963-6.111-8.669c-15.599-2.699-32.209-4.068-49.371-4.068
	c-37.724,0-73.201,6.923-96.71,18.491V57.924C159.292,47.639,168.875,37.104,185.582,29.02z M163.547,159.097
	c-2.327-1.338-5.192-1.331-7.511,0.02c-1.375,0.8-2.802,1.206-4.243,1.206c-4.705,0-8.532-3.828-8.532-8.532v-8.016
	c0-4.705,3.828-8.533,8.532-8.533c1.441,0,2.868,0.406,4.243,1.206c1.994,1.16,4.301,1.296,6.314,0.571l8.293,6.22
	c4.378,3.284,9.552,4.973,14.703,4.973c3.33,0,6.651-0.706,9.74-2.144c1.676-0.78,3.46-1.517,5.318-2.22v7.943
	c0,4.142,3.358,7.5,7.5,7.5s7.5-3.358,7.5-7.5v-12.358c12.029-2.712,25.987-4.191,40.598-4.191s28.567,1.478,40.596,4.19v12.358
	c0,4.142,3.358,7.5,7.5,7.5s7.5-3.358,7.5-7.5v-7.943c1.859,0.703,3.643,1.44,5.319,2.22c7.869,3.662,17.235,2.578,24.443-2.829
	l8.293-6.22c2.014,0.725,4.322,0.589,6.315-0.572c1.375-0.8,2.802-1.206,4.243-1.206c4.705,0,8.532,3.828,8.532,8.533v8.016
	c0,4.705-3.828,8.532-8.532,8.532c-1.441,0-2.868-0.406-4.243-1.206c-2.32-1.351-5.185-1.358-7.512-0.02s-3.762,3.818-3.762,6.502
	v2.224c0,48.906-39.788,88.693-88.693,88.693s-88.694-39.788-88.694-88.693v-2.224C167.309,162.915,165.874,160.435,163.547,159.097
	z M143.776,384.774h-16.032c-0.285,0-0.516-0.231-0.516-0.516v-56.647l17.064-4.74v61.387
	C144.292,384.543,144.061,384.774,143.776,384.774z M256.002,368.742c-36.94,0-70.292-20.856-86.586-53.608
	c13.21-6.597,21.941-20.256,21.941-35.409v-30.888c17.74,14.184,40.218,22.679,64.646,22.679c24.426,0,46.901-8.493,64.641-22.675
	v30.884c0,15.155,8.733,28.816,21.946,35.412C326.295,347.891,292.957,368.742,256.002,368.742z M384.776,384.258
	c0,0.285-0.231,0.516-0.516,0.516h-16.032c-0.285,0-0.516-0.231-0.516-0.516v-61.386l17.064,4.74V384.258z"/>
<path d="M151.788,448.903h-8.016c-4.142,0-7.5,3.358-7.5,7.5s3.358,7.5,7.5,7.5h8.016c4.142,0,7.5-3.358,7.5-7.5
	S155.93,448.903,151.788,448.903z"/>
<path d="M368.224,448.903h-8.016c-4.142,0-7.5,3.358-7.5,7.5s3.358,7.5,7.5,7.5h8.016c4.142,0,7.5-3.358,7.5-7.5
	S372.366,448.903,368.224,448.903z"/>
<path d="M247.986,59.089h4.955l-3.902,9.754c-1.539,3.846,0.332,8.211,4.178,9.749c0.914,0.366,1.856,0.539,2.783,0.539
	c2.977,0,5.793-1.784,6.966-4.716l8.016-20.04c0.924-2.311,0.643-4.93-0.753-6.99c-1.395-2.061-3.722-3.295-6.21-3.295h-4.955
	l3.902-9.755c1.539-3.846-0.332-8.211-4.178-9.749c-3.849-1.54-8.211,0.332-9.749,4.178l-8.016,20.041
	c-0.924,2.311-0.643,4.93,0.753,6.99C243.171,57.854,245.498,59.089,247.986,59.089z"/>
<g>
</g>
<g>
</g>
<g>
</g>
<g>
</g>
<g>
</g>
<g>
</g>
<g>
</g>
<g>
</g>
<g>
</g>
<g>
</g>
<g>
</g>
<g>
</g>
<g>
</g>
<g>
</g>
<g>
</g>
</svg>
