<?xml version="1.0" encoding="iso-8859-1"?>
<!-- Generator: Adobe Illustrator 19.0.0, SVG Export Plug-In . SVG Version: 6.00 Build 0)  -->
<svg version="1.1" id="Layer_1" xmlns="http://www.w3.org/2000/svg" xmlns:xlink="http://www.w3.org/1999/xlink" x="0px" y="0px"
	 viewBox="0 0 512 512" style="enable-background:new 0 0 512 512;" xml:space="preserve">
<circle style="fill:#666666;" cx="119.309" cy="325.36" r="110.542"/>
<circle style="fill:#CCCCCC;" cx="119.309" cy="325.36" r="57.414"/>
<path style="fill:#B3B3B3;" d="M78.57,325.36c0-28.875,21.319-52.765,49.076-56.804c-2.723-0.397-5.506-0.611-8.339-0.611
	c-31.709,0-57.414,25.705-57.414,57.414s25.705,57.414,57.414,57.414c2.833,0,5.615-0.214,8.339-0.61
	C99.889,378.125,78.57,354.236,78.57,325.36z"/>
<path style="fill:#CCCCCC;" d="M440.197,455.57l2.721,26.445c6.512-4.141,11.954-10.064,15.452-17.406
	c6.145-12.896,5.23-27.117-0.989-38.578c-8.89-16.379-10.574-35.706-3.655-53.01l18.576-46.45
	c3.639-9.099,9.599-17.006,16.964-23.468c4.854-4.26,8.805-9.693,11.368-16.101c8.871-22.182-2.307-47.405-24.928-55.635
	l2.753,26.751c1.061,10.306-6.434,19.52-16.74,20.581l0,0c-10.306,1.061-19.52-6.434-20.581-16.74l-2.721-26.445
	c-6.512,4.141-11.954,10.064-15.452,17.406c-6.145,12.896-5.23,27.117,0.989,38.578c8.89,16.379,10.574,35.706,3.655,53.01
	l-11.734,29.342l-6.842,17.108c-3.639,9.099-9.599,17.006-16.964,23.468c-4.854,4.26-8.805,9.693-11.368,16.101
	c-4.729,11.825-3.761,24.515,1.602,35.033c5.477,10.743,21.807,5.844,20.572-6.151l0,0c-1.061-10.306,6.434-19.52,16.74-20.581
	C419.616,438.83,436.11,437.531,440.197,455.57"/>
<g>
	<polygon style="fill:#E6E6E6;" points="480.027,90.409 496.24,118.491 480.027,146.573 447.6,146.573 431.387,118.491 
		447.6,90.409 	"/>
	<polygon style="fill:#E6E6E6;" points="78.322,129.227 94.535,157.309 78.322,185.39 45.895,185.39 29.683,157.309 45.895,129.227 
			"/>
</g>
<g>
	<path style="fill:#E0B394;" d="M150.624,222.186c-14.101-0.625-25.324-12.258-25.324-26.507c0-14.646,11.872-26.53,26.53-26.53
		c1.319,0,2.615,0.091,3.889,0.284L150.624,222.186z"/>
	<path style="fill:#E0B394;" d="M390.356,222.186c14.101-0.625,25.336-12.258,25.336-26.507c0-14.646-11.883-26.53-26.541-26.53
		c-1.319,0-2.627,0.102-3.889,0.284L390.356,222.186z"/>
</g>
<path style="fill:#8DA558;" d="M324.121,318.309H216.878c-38.84,0-70.328,31.486-70.328,70.328v103.231h247.897V388.637
	C394.448,349.795,362.961,318.309,324.121,318.309z"/>
<rect x="226.155" y="297.239" style="fill:#5D9EBA;" width="88.697" height="110.462"/>
<path style="fill:#798C46;" d="M260.209,318.309h-43.332c-38.84,0-70.328,31.486-70.328,70.328v103.231h43.332V388.637
	C189.882,349.795,221.369,318.309,260.209,318.309z"/>
<path style="fill:#F7CBA4;" d="M232.116,336.861l-46.679-33.914c-24.667-17.921-38.011-47.558-35.079-77.907l8.096-83.782
	c5.577-57.704,54.068-101.736,112.04-101.736l0,0c57.973,0,106.464,44.031,112.04,101.736l8.096,83.782
	c2.933,30.349-10.411,59.984-35.079,77.907l-46.679,33.914C285.99,353.488,255.001,353.488,232.116,336.861z"/>
<path style="fill:#E0B394;" d="M179.407,241.552c-0.785,13.27,3.537,26.325,12.088,36.502l48.787,59.95
	c2.547,3.036,5.436,5.583,8.563,7.619c-5.868-2.047-11.508-4.981-16.727-8.767l-46.68-33.91
	c-24.665-17.921-38.003-47.555-35.069-77.906l8.085-83.785c5.527-57.141,53.127-100.876,110.36-101.706
	c-35.251,0.853-75.169,34.08-77.25,69.468L179.407,241.552z"/>
<path style="fill:#8DA558;" d="M386.197,150.601c-47.794-47.783-117.797-59.836-176.78-36.138
	c-19.889,7.983-38.515,20.025-54.628,36.138l4.969-83.591c0-9.791,6.47-18.388,15.875-21.094l49.739-14.351l34.353-9.905
	c7.039-2.024,14.51-2.024,21.549,0l84.08,24.255c9.404,2.706,15.875,11.303,15.875,21.094L386.197,150.601z"/>
<path style="fill:#798C46;" d="M209.416,114.462c-19.889,7.983-38.515,20.025-54.628,36.138l4.969-83.591
	c0-9.791,6.47-18.388,15.875-21.094l49.739-14.351C216.842,50.691,208.052,79.347,209.416,114.462z"/>
<path style="fill:#8DA558;" d="M386.197,150.601l0.432,7.244l-0.273,0.011c-73.937-31.988-157.801-31.988-231.727,0l-0.273-0.011
	l0.432-7.244C218.684,86.704,322.289,86.704,386.197,150.601z"/>
<path style="fill:#5D9EBA;" d="M394.444,384.531v107.335h-48.147v-87.64c0-24.369,12.543-47.032,33.182-59.996l0.216-0.182
	C388.906,355,394.444,369.123,394.444,384.531z"/>
<path style="fill:#508DA3;" d="M194.694,404.227v87.64h-48.147V384.531c0-15.408,5.538-29.532,14.749-40.482l0.216,0.182
	C182.162,357.194,194.694,379.858,194.694,404.227z"/>
<path d="M285.564,280.678c-4.088,4.088-9.524,6.34-15.305,6.34c-5.781,0-11.217-2.252-15.305-6.34
	c-3.331-3.331-8.731-3.331-12.062,0c-3.331,3.331-3.331,8.73,0,12.061c7.31,7.311,17.029,11.336,27.366,11.336
	c10.338,0,20.057-4.026,27.367-11.336c3.331-3.331,3.331-8.731-0.001-12.061C294.296,277.347,288.896,277.348,285.564,280.678z"/>
<path d="M219.637,200.995c-4.71,0-8.529,3.819-8.529,8.529v13.641c0,4.71,3.819,8.529,8.529,8.529c4.71,0,8.529-3.819,8.529-8.529
	v-13.641C228.166,204.814,224.347,200.995,219.637,200.995z"/>
<path d="M320.883,159.941c-9.644,0-18.711,3.756-25.53,10.574c-3.331,3.331-3.331,8.731,0.001,12.061
	c3.33,3.332,8.73,3.331,12.061,0c3.597-3.598,8.38-5.579,13.468-5.579c5.088,0,9.87,1.981,13.467,5.579
	c1.666,1.666,3.848,2.498,6.031,2.498c2.182,0,4.366-0.832,6.03-2.498c3.332-3.331,3.332-8.73,0.001-12.061
	C339.592,163.697,330.526,159.941,320.883,159.941z"/>
<path d="M245.167,170.516c-14.076-14.078-36.982-14.077-51.059,0c-3.331,3.331-3.331,8.731,0,12.061
	c3.331,3.331,8.731,3.331,12.061,0c3.598-3.598,8.381-5.579,13.468-5.579c5.088,0,9.872,1.981,13.468,5.579
	c1.665,1.665,3.848,2.498,6.03,2.498c2.182,0,4.365-0.832,6.03-2.498C248.498,179.246,248.498,173.846,245.167,170.516z"/>
<path d="M320.881,200.995c-4.711,0-8.529,3.819-8.529,8.529v13.641c0,4.71,3.817,8.529,8.529,8.529c4.711,0,8.529-3.819,8.529-8.529
	v-13.641C329.41,204.814,325.591,200.995,320.881,200.995z"/>
<path d="M270.259,258.99c11.914,0,21.606-9.692,21.606-21.606v-40.369c0-4.71-3.817-8.529-8.529-8.529s-8.529,3.819-8.529,8.529
	v40.369c0,2.509-2.04,4.549-4.549,4.549c-2.509,0-4.549-2.04-4.549-4.549v-40.369c0-4.71-3.817-8.529-8.529-8.529
	c-4.71,0-8.529,3.819-8.529,8.529v40.369C248.653,249.297,258.345,258.99,270.259,258.99z"/>
<path d="M270.259,73.703c4.711,0,8.529-3.819,8.529-8.529v-15.92c0-4.71-3.817-8.529-8.529-8.529c-4.711,0-8.529,3.819-8.529,8.529
	v15.92C261.731,69.885,265.548,73.703,270.259,73.703z"/>
<path d="M225.917,352.778c-4.71,0-8.529,3.819-8.529,8.529v46.395c0,4.71,3.819,8.529,8.529,8.529h88.697
	c4.711,0,8.529-3.819,8.529-8.529v-46.395c0-4.71-3.817-8.529-8.529-8.529s-8.529,3.819-8.529,8.529v37.867h-71.64v-37.867
	C234.446,356.596,230.627,352.778,225.917,352.778z"/>
<path d="M368.262,323.339c-4.028-2.443-9.272-1.159-11.715,2.869s-1.16,9.272,2.868,11.715c2.477,1.502,4.812,3.193,7.005,5.055
	c-18.248,14.981-28.883,37.22-28.883,61.25v30.612c0,4.71,3.817,8.529,8.529,8.529s8.529-3.819,8.529-8.529v-30.612
	c0-18.982,8.462-36.534,22.952-48.298c5.28,8.544,8.137,18.456,8.137,28.603v98.806h-31.09v-17.795c0-4.71-3.817-8.529-8.529-8.529
	s-8.529,3.819-8.529,8.529v17.795h-14.393v-26.17c0-4.71-3.817-8.529-8.529-8.529h-88.697c-4.71,0-8.529,3.819-8.529,8.529v26.17
	h-14.4v-79.111c0-24.037-10.636-46.277-28.883-61.252c2.189-1.859,4.525-3.551,6.999-5.056c4.025-2.446,5.306-7.692,2.859-11.717
	s-7.693-5.307-11.717-2.859c-6.727,4.088-12.692,9.214-17.711,15.217c-10.802,12.842-16.75,29.168-16.75,45.971v107.335
	c0,4.71,3.819,8.529,8.529,8.529h79.603h88.697h79.597c4.711,0,8.529-3.819,8.529-8.529V384.533c0-16.802-5.948-33.13-16.734-45.953
	C380.966,332.551,374.996,327.424,368.262,323.339z M154.843,384.531c0-10.142,2.855-20.05,8.14-28.603
	c14.489,11.759,22.95,29.311,22.95,48.298v79.111h-31.089V384.531z M234.446,483.338v-17.642h71.64v17.642H234.446z"/>
<path d="M507.521,250.442c-5.683-12.701-16.028-22.321-29.129-27.088c-2.76-1.005-5.844-0.517-8.16,1.288s-3.54,4.677-3.241,7.6
	l2.753,26.751c0.578,5.612-3.517,10.647-9.129,11.225c-5.604,0.586-10.646-3.517-11.224-9.129l-2.722-26.445
	c-0.304-2.941-2.107-5.515-4.767-6.802c-2.662-1.288-5.798-1.108-8.294,0.48c-8.073,5.134-14.494,12.373-18.573,20.935
	c-7.173,15.055-6.552,32.684,1.663,47.16c7.728,13.618,8.718,30.035,2.717,45.042l-11.689,29.229
	c-1.749,4.373,0.379,9.337,4.752,11.086c4.375,1.749,9.337-0.378,11.086-4.752l11.689-29.229c7.937-19.849,6.582-41.642-3.72-59.794
	c-5.467-9.635-5.878-21.375-1.1-31.404c0.35-0.733,0.725-1.452,1.126-2.155l0.864,8.4c1.541,14.967,14.978,25.892,29.939,24.35
	c14.967-1.54,25.892-14.97,24.351-29.938l-0.945-9.176c2.532,2.708,4.621,5.847,6.184,9.337c3.781,8.449,3.971,17.835,0.534,26.428
	c-2.017,5.047-5.104,9.402-9.172,12.943c-8.542,7.437-15.225,16.789-19.326,27.041l-18.365,45.921
	c-7.936,19.847-6.582,41.641,3.72,59.794c5.467,9.635,5.878,21.375,1.1,31.406c-0.35,0.733-0.725,1.452-1.126,2.155l-0.864-8.399
	c-1.541-14.968-14.975-25.888-29.939-24.351c-4.685,0.482-8.093,4.671-7.611,9.356c0.482,4.685,4.658,8.095,9.358,7.611
	c5.611-0.567,10.648,3.518,11.225,9.13l2.722,26.445c0.304,2.941,2.107,5.515,4.768,6.802c1.177,0.57,2.447,0.853,3.716,0.853
	c1.595,0,3.187-0.448,4.577-1.333c8.073-5.134,14.494-12.373,18.573-20.934c7.174-15.054,6.552-32.684-1.661-47.16
	c-7.729-13.62-8.718-30.036-2.718-45.042l18.365-45.921c3.1-7.751,8.178-14.844,14.688-20.512
	c6.043-5.262,10.82-11.996,13.811-19.475C513.489,277.252,513.203,263.142,507.521,250.442z"/>
<path d="M119.969,428.272c-56.746,0-102.911-46.166-102.911-102.911c0-51.123,38.122-94.946,88.674-101.936
	c4.666-0.645,7.925-4.951,7.28-9.617c-0.645-4.666-4.943-7.933-9.617-7.28c-28.432,3.932-54.573,18.033-73.604,39.706
	C10.58,268.113,0,296.214,0,325.36c0,66.151,53.818,119.969,119.969,119.969c4.71,0,8.529-3.819,8.529-8.529
	S124.679,428.272,119.969,428.272z"/>
<path d="M140.311,268.801c0.945-4.615-2.031-9.121-6.645-10.066c-4.479-0.917-9.088-1.382-13.697-1.382
	c-37.5,0-68.007,30.507-68.007,68.007s30.507,68.007,68.007,68.007c4.71,0,8.529-3.819,8.529-8.529s-3.819-8.529-8.529-8.529
	c-28.094,0-50.95-22.855-50.95-50.95c0-28.094,22.855-50.95,50.95-50.95c3.464,0,6.921,0.348,10.278,1.035
	C134.862,276.391,139.367,273.414,140.311,268.801z"/>
<path d="M439.981,150.837c1.524,2.638,4.338,4.264,7.386,4.264h32.427c3.048,0,5.862-1.626,7.386-4.264l16.213-28.082
	c1.524-2.638,1.524-5.89,0-8.529L487.18,86.145c-1.524-2.638-4.338-4.264-7.386-4.264h-32.427c-3.048,0-5.862,1.626-7.386,4.264
	l-16.213,28.082c-1.524,2.638-1.524,5.89,0,8.529L439.981,150.837z M452.291,98.938h22.578l11.29,19.553l-11.29,19.553h-22.578
	l-11.29-19.553L452.291,98.938z"/>
<path d="M38.276,189.655c1.524,2.638,4.338,4.264,7.386,4.264h32.427c3.048,0,5.862-1.626,7.386-4.264l16.213-28.082
	c1.524-2.638,1.524-5.89,0-8.529l-16.213-28.082c-1.524-2.638-4.338-4.264-7.386-4.264H45.662c-3.048,0-5.862,1.626-7.386,4.264
	l-16.213,28.082c-1.524,2.638-1.524,5.89,0,8.529L38.276,189.655z M50.586,137.755h22.578l11.29,19.553l-11.29,19.553H50.586
	l-11.29-19.553L50.586,137.755z"/>
<path d="M141.299,229.207c-1.35,31.477,13.253,62.012,38.891,80.633l46.68,33.921c12.975,9.429,28.177,14.143,43.387,14.142
	c15.205,0,30.417-4.715,43.397-14.142l46.68-33.921c25.635-18.625,40.232-49.162,38.881-80.637
	c14.412-4.394,24.767-17.774,24.767-33.529c0-17.207-12.469-31.548-28.845-34.494l-5.616-94.452
	c-0.122-13.391-9.147-25.297-22.033-29.013l-84.085-24.25c-8.597-2.48-17.683-2.48-26.278,0l-84.091,24.25
	C160.147,41.43,151.121,53.335,151,66.727l-5.62,94.45c-16.377,2.942-28.846,17.286-28.846,34.496
	C116.533,211.439,126.887,224.818,141.299,229.207z M350.308,296.04l-46.679,33.92c-19.963,14.499-46.78,14.5-66.732,0.001
	l-46.682-33.922c-22.125-16.069-34.235-42.961-31.603-70.184c0.01-0.105,0.018-0.209,0.024-0.314l3.674-61.748
	c68.885-28.381,147.001-28.381,215.895,0l3.672,61.749c0.006,0.105,0.015,0.209,0.024,0.314
	C384.533,253.075,372.428,279.969,350.308,296.04z M182.289,138.552c52.751-36.356,123.18-36.354,175.937,0
	C301.017,121.09,239.492,121.092,182.289,138.552z M406.926,195.673c0,6.583-3.521,12.355-8.815,15.494l-1.899-31.936
	C402.514,182.036,406.926,188.345,406.926,195.673z M168.055,67.002c0-5.946,3.99-11.251,9.704-12.897l84.091-24.251
	c2.752-0.794,5.582-1.191,8.413-1.191s5.662,0.397,8.413,1.191l84.085,24.251c5.713,1.648,9.703,6.951,9.703,12.897
	c0,0.168,0.006,0.338,0.016,0.506l3.754,63.118C314.2,82.11,226.309,82.108,164.284,130.625l3.755-63.117
	C168.049,67.34,168.055,67.171,168.055,67.002z M144.306,179.227l-1.9,31.947c-5.295-3.136-8.815-8.911-8.815-15.499
	C133.59,188.342,138.003,182.031,144.306,179.227z"/>
<circle cx="463.579" cy="118.502" r="8.529"/>
<circle cx="61.872" cy="157.313" r="8.529"/>
<circle cx="120.162" cy="293.429" r="8.529"/>
<circle cx="88.356" cy="325.36" r="8.529"/>
<circle cx="120.162" cy="358.246" r="8.529"/>
<g>
</g>
<g>
</g>
<g>
</g>
<g>
</g>
<g>
</g>
<g>
</g>
<g>
</g>
<g>
</g>
<g>
</g>
<g>
</g>
<g>
</g>
<g>
</g>
<g>
</g>
<g>
</g>
<g>
</g>
</svg>
